<?xml version="1.0" encoding="UTF-8"?>
<svg xmlns="http://www.w3.org/2000/svg" xmlns:xlink="http://www.w3.org/1999/xlink" width="854" height="480" viewBox="0 0 854 480">
<defs>
<g>
<g id="glyph-0-0">
<path d="M 8.496094 -7.273438 C 8.367188 -7.261719 8.246094 -7.238281 8.136719 -7.203125 C 8.03125 -7.171875 7.925781 -7.125 7.828125 -7.070312 C 7.675781 -6.980469 7.535156 -6.871094 7.414062 -6.734375 C 7.292969 -6.601562 7.175781 -6.449219 7.058594 -6.28125 C 6.824219 -5.9375 6.578125 -5.566406 6.320312 -5.160156 C 6.0625 -4.757812 5.78125 -4.316406 5.480469 -3.832031 C 5.28125 -3.523438 5.15625 -3.285156 5.113281 -3.121094 C 5.066406 -2.957031 5.046875 -2.671875 5.046875 -2.269531 L 5.046875 -1.175781 C 5.046875 -1.046875 5.070312 -0.933594 5.117188 -0.835938 C 5.167969 -0.738281 5.261719 -0.660156 5.398438 -0.597656 C 5.460938 -0.570312 5.589844 -0.539062 5.789062 -0.496094 C 5.988281 -0.453125 6.132812 -0.429688 6.226562 -0.421875 L 6.226562 0 L 1.9375 0 L 1.9375 -0.421875 C 2.039062 -0.429688 2.183594 -0.445312 2.375 -0.464844 C 2.5625 -0.488281 2.695312 -0.511719 2.773438 -0.542969 C 2.90625 -0.601562 2.996094 -0.675781 3.046875 -0.773438 C 3.09375 -0.867188 3.121094 -0.984375 3.121094 -1.121094 L 3.121094 -2.480469 C 3.121094 -2.597656 3.117188 -2.703125 3.113281 -2.792969 C 3.109375 -2.882812 3.097656 -2.960938 3.074219 -3.023438 C 3.050781 -3.089844 3.007812 -3.179688 2.945312 -3.285156 C 2.882812 -3.390625 2.804688 -3.53125 2.707031 -3.699219 C 2.429688 -4.1875 2.160156 -4.652344 1.898438 -5.089844 C 1.636719 -5.527344 1.390625 -5.9375 1.15625 -6.320312 C 1.03125 -6.519531 0.910156 -6.679688 0.785156 -6.800781 C 0.660156 -6.921875 0.53125 -7.019531 0.402344 -7.097656 C 0.304688 -7.148438 0.183594 -7.191406 0.046875 -7.222656 C -0.09375 -7.25 -0.21875 -7.269531 -0.332031 -7.273438 L -0.332031 -7.699219 L 4.078125 -7.699219 L 4.078125 -7.273438 C 3.675781 -7.265625 3.402344 -7.234375 3.261719 -7.191406 C 3.121094 -7.144531 3.050781 -7.082031 3.050781 -7.003906 C 3.050781 -6.964844 3.078125 -6.882812 3.128906 -6.765625 C 3.183594 -6.644531 3.277344 -6.460938 3.410156 -6.210938 C 3.53125 -5.976562 3.710938 -5.652344 3.949219 -5.242188 C 4.1875 -4.828125 4.46875 -4.347656 4.804688 -3.792969 C 5.488281 -4.882812 5.960938 -5.640625 6.21875 -6.074219 C 6.472656 -6.503906 6.601562 -6.769531 6.601562 -6.867188 C 6.601562 -6.992188 6.527344 -7.085938 6.375 -7.148438 C 6.222656 -7.214844 5.980469 -7.257812 5.640625 -7.273438 L 5.640625 -7.699219 L 8.496094 -7.699219 Z "/>
</g>
<g id="glyph-0-1">
<path d="M 5.855469 -4.742188 C 6.121094 -4.492188 6.324219 -4.195312 6.464844 -3.847656 C 6.609375 -3.5 6.679688 -3.125 6.679688 -2.71875 C 6.679688 -2.316406 6.609375 -1.9375 6.46875 -1.582031 C 6.332031 -1.226562 6.125 -0.921875 5.859375 -0.667969 C 5.574219 -0.394531 5.234375 -0.1875 4.835938 -0.0429688 C 4.441406 0.101562 3.988281 0.171875 3.476562 0.171875 C 3.035156 0.171875 2.628906 0.109375 2.257812 -0.015625 C 1.890625 -0.144531 1.5625 -0.332031 1.273438 -0.585938 C 1 -0.828125 0.78125 -1.128906 0.625 -1.484375 C 0.464844 -1.839844 0.386719 -2.238281 0.386719 -2.679688 C 0.386719 -3.113281 0.453125 -3.5 0.59375 -3.839844 C 0.734375 -4.175781 0.941406 -4.476562 1.21875 -4.742188 C 1.488281 -4.996094 1.816406 -5.191406 2.210938 -5.332031 C 2.601562 -5.46875 3.042969 -5.539062 3.527344 -5.539062 C 4.03125 -5.539062 4.476562 -5.46875 4.863281 -5.332031 C 5.25 -5.191406 5.578125 -4.996094 5.855469 -4.742188 M 4.464844 -0.980469 C 4.542969 -1.183594 4.601562 -1.429688 4.640625 -1.71875 C 4.679688 -2.007812 4.699219 -2.34375 4.699219 -2.730469 C 4.699219 -2.980469 4.679688 -3.269531 4.644531 -3.597656 C 4.609375 -3.921875 4.554688 -4.179688 4.480469 -4.367188 C 4.394531 -4.59375 4.273438 -4.773438 4.121094 -4.90625 C 3.964844 -5.035156 3.773438 -5.101562 3.539062 -5.101562 C 3.28125 -5.101562 3.074219 -5.027344 2.921875 -4.886719 C 2.769531 -4.746094 2.648438 -4.5625 2.566406 -4.339844 C 2.488281 -4.132812 2.4375 -3.890625 2.410156 -3.617188 C 2.378906 -3.339844 2.367188 -3.050781 2.367188 -2.75 C 2.367188 -2.355469 2.378906 -2.03125 2.402344 -1.769531 C 2.429688 -1.511719 2.488281 -1.253906 2.585938 -0.992188 C 2.671875 -0.769531 2.789062 -0.589844 2.945312 -0.460938 C 3.101562 -0.332031 3.296875 -0.265625 3.539062 -0.265625 C 3.753906 -0.265625 3.941406 -0.328125 4.097656 -0.449219 C 4.25 -0.570312 4.375 -0.746094 4.464844 -0.980469 Z "/>
</g>
<g id="glyph-0-2">
<path d="M 7.390625 -0.113281 L 4.800781 0.0429688 L 4.71875 -0.03125 L 4.71875 -0.742188 L 4.6875 -0.742188 C 4.566406 -0.632812 4.445312 -0.523438 4.328125 -0.414062 C 4.210938 -0.308594 4.070312 -0.210938 3.90625 -0.125 C 3.722656 -0.0273438 3.550781 0.046875 3.382812 0.09375 C 3.21875 0.140625 2.980469 0.164062 2.667969 0.164062 C 2.121094 0.164062 1.703125 0 1.414062 -0.332031 C 1.121094 -0.660156 0.976562 -1.125 0.976562 -1.726562 L 0.976562 -4.167969 C 0.976562 -4.308594 0.949219 -4.421875 0.894531 -4.511719 C 0.839844 -4.601562 0.769531 -4.679688 0.679688 -4.746094 C 0.609375 -4.800781 0.515625 -4.839844 0.398438 -4.863281 C 0.285156 -4.886719 0.179688 -4.902344 0.0859375 -4.910156 L 0.0859375 -5.304688 L 2.707031 -5.445312 L 2.765625 -5.367188 L 2.765625 -1.757812 C 2.765625 -1.386719 2.839844 -1.109375 2.980469 -0.933594 C 3.125 -0.757812 3.320312 -0.667969 3.570312 -0.667969 C 3.828125 -0.667969 4.058594 -0.734375 4.261719 -0.867188 C 4.464844 -1 4.613281 -1.144531 4.710938 -1.296875 L 4.710938 -4.222656 C 4.710938 -4.34375 4.683594 -4.453125 4.636719 -4.550781 C 4.589844 -4.648438 4.523438 -4.730469 4.433594 -4.789062 C 4.367188 -4.832031 4.273438 -4.863281 4.152344 -4.878906 C 4.03125 -4.890625 3.90625 -4.902344 3.78125 -4.910156 L 3.78125 -5.304688 L 6.417969 -5.445312 L 6.5 -5.367188 L 6.5 -1.175781 C 6.5 -1.050781 6.523438 -0.941406 6.574219 -0.855469 C 6.625 -0.765625 6.699219 -0.691406 6.796875 -0.628906 C 6.863281 -0.585938 6.953125 -0.554688 7.0625 -0.539062 C 7.171875 -0.523438 7.28125 -0.511719 7.390625 -0.511719 Z "/>
</g>
<g id="glyph-0-3">
<path d="M 5.71875 -4.390625 C 5.71875 -4.113281 5.632812 -3.871094 5.464844 -3.664062 C 5.292969 -3.457031 5.070312 -3.351562 4.789062 -3.351562 C 4.527344 -3.351562 4.304688 -3.417969 4.121094 -3.550781 C 3.9375 -3.6875 3.847656 -3.882812 3.847656 -4.140625 C 3.847656 -4.265625 3.855469 -4.367188 3.875 -4.4375 C 3.890625 -4.507812 3.90625 -4.570312 3.921875 -4.632812 C 3.757812 -4.625 3.582031 -4.570312 3.394531 -4.460938 C 3.210938 -4.351562 3.050781 -4.210938 2.90625 -4.03125 L 2.90625 -1.050781 C 2.90625 -0.925781 2.929688 -0.820312 2.96875 -0.738281 C 3.007812 -0.65625 3.074219 -0.589844 3.167969 -0.542969 C 3.246094 -0.503906 3.378906 -0.46875 3.554688 -0.441406 C 3.734375 -0.414062 3.863281 -0.398438 3.945312 -0.394531 L 3.945312 0 L 0.316406 0 L 0.316406 -0.394531 C 0.40625 -0.402344 0.496094 -0.414062 0.589844 -0.425781 C 0.679688 -0.4375 0.757812 -0.457031 0.824219 -0.476562 C 0.941406 -0.515625 1.019531 -0.578125 1.0625 -0.660156 C 1.105469 -0.746094 1.128906 -0.855469 1.128906 -0.988281 L 1.128906 -4.144531 C 1.128906 -4.273438 1.097656 -4.390625 1.035156 -4.496094 C 0.976562 -4.597656 0.902344 -4.679688 0.8125 -4.742188 C 0.75 -4.785156 0.667969 -4.820312 0.566406 -4.851562 C 0.46875 -4.878906 0.359375 -4.898438 0.238281 -4.910156 L 0.238281 -5.304688 L 2.828125 -5.445312 L 2.90625 -5.367188 L 2.90625 -4.578125 L 2.929688 -4.578125 C 3.179688 -4.867188 3.445312 -5.09375 3.722656 -5.257812 C 4.003906 -5.425781 4.296875 -5.507812 4.601562 -5.507812 C 4.9375 -5.507812 5.207031 -5.402344 5.410156 -5.195312 C 5.617188 -4.988281 5.71875 -4.71875 5.71875 -4.390625 Z "/>
</g>
<g id="glyph-0-4">
</g>
<g id="glyph-0-5">
<path d="M 7.53125 -5.496094 L 7.105469 -5.496094 C 6.996094 -5.824219 6.816406 -6.175781 6.570312 -6.554688 C 6.320312 -6.929688 6.09375 -7.132812 5.882812 -7.160156 C 5.769531 -7.175781 5.625 -7.1875 5.457031 -7.199219 C 5.285156 -7.210938 5.140625 -7.214844 5.019531 -7.214844 L 4.761719 -7.214844 L 4.761719 -1.175781 C 4.761719 -1.046875 4.785156 -0.933594 4.832031 -0.832031 C 4.878906 -0.734375 4.972656 -0.65625 5.109375 -0.597656 C 5.195312 -0.5625 5.324219 -0.53125 5.5 -0.496094 C 5.671875 -0.460938 5.824219 -0.4375 5.945312 -0.421875 L 5.945312 0 L 1.65625 0 L 1.65625 -0.421875 C 1.757812 -0.433594 1.90625 -0.449219 2.097656 -0.46875 C 2.285156 -0.488281 2.414062 -0.511719 2.484375 -0.542969 C 2.625 -0.601562 2.71875 -0.679688 2.765625 -0.777344 C 2.8125 -0.875 2.835938 -0.988281 2.835938 -1.121094 L 2.835938 -7.214844 L 2.582031 -7.214844 C 2.460938 -7.214844 2.3125 -7.210938 2.144531 -7.199219 C 1.976562 -7.1875 1.832031 -7.175781 1.71875 -7.160156 C 1.507812 -7.132812 1.28125 -6.929688 1.03125 -6.554688 C 0.785156 -6.175781 0.605469 -5.824219 0.492188 -5.496094 L 0.0703125 -5.496094 L 0.0703125 -7.699219 L 7.53125 -7.699219 Z "/>
</g>
<g id="glyph-0-6">
<path d="M 3.742188 0 L 0.316406 0 L 0.316406 -0.394531 C 0.410156 -0.402344 0.5 -0.414062 0.589844 -0.421875 C 0.683594 -0.433594 0.757812 -0.453125 0.824219 -0.476562 C 0.941406 -0.519531 1.023438 -0.582031 1.070312 -0.664062 C 1.117188 -0.746094 1.140625 -0.855469 1.140625 -0.988281 L 1.140625 -4.144531 C 1.140625 -4.269531 1.109375 -4.382812 1.050781 -4.476562 C 0.996094 -4.574219 0.921875 -4.652344 0.835938 -4.710938 C 0.769531 -4.753906 0.671875 -4.792969 0.539062 -4.832031 C 0.40625 -4.875 0.289062 -4.898438 0.179688 -4.910156 L 0.179688 -5.304688 L 2.835938 -5.445312 L 2.917969 -5.367188 L 2.917969 -1.058594 C 2.917969 -0.929688 2.945312 -0.824219 3 -0.734375 C 3.054688 -0.648438 3.132812 -0.582031 3.234375 -0.535156 C 3.304688 -0.503906 3.386719 -0.476562 3.472656 -0.449219 C 3.558594 -0.425781 3.648438 -0.40625 3.742188 -0.394531 L 3.742188 0 M 2.953125 -7.398438 C 2.953125 -7.125 2.84375 -6.890625 2.632812 -6.699219 C 2.421875 -6.503906 2.171875 -6.40625 1.882812 -6.40625 C 1.589844 -6.40625 1.335938 -6.503906 1.125 -6.699219 C 0.914062 -6.890625 0.808594 -7.125 0.808594 -7.398438 C 0.808594 -7.675781 0.914062 -7.910156 1.125 -8.105469 C 1.335938 -8.300781 1.589844 -8.398438 1.882812 -8.398438 C 2.175781 -8.398438 2.425781 -8.300781 2.636719 -8.105469 C 2.847656 -7.910156 2.953125 -7.675781 2.953125 -7.398438 Z "/>
</g>
<g id="glyph-0-7">
<path d="M 6.515625 -0.113281 C 6.355469 -0.046875 6.167969 0.0195312 5.953125 0.0742188 C 5.734375 0.132812 5.507812 0.164062 5.265625 0.164062 C 4.820312 0.164062 4.496094 0.0976562 4.285156 -0.0351562 C 4.074219 -0.167969 3.933594 -0.355469 3.855469 -0.601562 L 3.824219 -0.601562 C 3.703125 -0.480469 3.582031 -0.375 3.46875 -0.289062 C 3.355469 -0.199219 3.230469 -0.125 3.101562 -0.0664062 C 2.933594 0.015625 2.769531 0.0742188 2.609375 0.113281 C 2.453125 0.152344 2.234375 0.171875 1.949219 0.171875 C 1.53125 0.171875 1.171875 0.0507812 0.875 -0.199219 C 0.578125 -0.445312 0.429688 -0.777344 0.429688 -1.183594 C 0.429688 -1.421875 0.460938 -1.621094 0.527344 -1.785156 C 0.589844 -1.949219 0.683594 -2.09375 0.804688 -2.222656 C 0.914062 -2.339844 1.039062 -2.433594 1.179688 -2.511719 C 1.324219 -2.585938 1.480469 -2.65625 1.652344 -2.722656 C 1.976562 -2.84375 2.367188 -2.964844 2.824219 -3.09375 C 3.28125 -3.222656 3.613281 -3.339844 3.824219 -3.441406 L 3.824219 -3.960938 C 3.824219 -4.050781 3.816406 -4.171875 3.804688 -4.320312 C 3.789062 -4.464844 3.757812 -4.589844 3.710938 -4.691406 C 3.660156 -4.808594 3.582031 -4.90625 3.472656 -4.984375 C 3.363281 -5.066406 3.21875 -5.105469 3.042969 -5.105469 C 2.882812 -5.105469 2.75 -5.082031 2.644531 -5.039062 C 2.539062 -4.992188 2.453125 -4.945312 2.386719 -4.898438 C 2.398438 -4.828125 2.429688 -4.714844 2.480469 -4.566406 C 2.53125 -4.417969 2.554688 -4.277344 2.554688 -4.140625 C 2.554688 -4.078125 2.539062 -4 2.507812 -3.910156 C 2.472656 -3.816406 2.425781 -3.742188 2.363281 -3.6875 C 2.28125 -3.617188 2.1875 -3.5625 2.085938 -3.519531 C 1.980469 -3.480469 1.824219 -3.460938 1.609375 -3.460938 C 1.304688 -3.460938 1.074219 -3.535156 0.917969 -3.679688 C 0.761719 -3.828125 0.683594 -4.019531 0.683594 -4.253906 C 0.683594 -4.457031 0.765625 -4.636719 0.925781 -4.796875 C 1.085938 -4.960938 1.28125 -5.09375 1.511719 -5.199219 C 1.742188 -5.304688 2.003906 -5.390625 2.300781 -5.449219 C 2.597656 -5.507812 2.871094 -5.539062 3.125 -5.539062 C 3.476562 -5.539062 3.796875 -5.519531 4.089844 -5.476562 C 4.382812 -5.433594 4.648438 -5.347656 4.882812 -5.21875 C 5.105469 -5.09375 5.285156 -4.910156 5.417969 -4.667969 C 5.550781 -4.429688 5.613281 -4.113281 5.613281 -3.726562 C 5.613281 -3.320312 5.605469 -2.832031 5.589844 -2.273438 C 5.574219 -1.710938 5.566406 -1.34375 5.566406 -1.167969 C 5.566406 -1.003906 5.589844 -0.875 5.640625 -0.78125 C 5.6875 -0.6875 5.761719 -0.617188 5.863281 -0.570312 C 5.925781 -0.539062 6.023438 -0.523438 6.15625 -0.519531 C 6.285156 -0.511719 6.40625 -0.511719 6.515625 -0.511719 L 6.515625 -0.113281 M 3.824219 -2.941406 C 3.621094 -2.871094 3.421875 -2.792969 3.21875 -2.703125 C 3.019531 -2.613281 2.855469 -2.523438 2.730469 -2.421875 C 2.597656 -2.324219 2.492188 -2.191406 2.414062 -2.035156 C 2.339844 -1.878906 2.300781 -1.691406 2.300781 -1.476562 C 2.300781 -1.195312 2.363281 -0.988281 2.492188 -0.863281 C 2.621094 -0.734375 2.78125 -0.671875 2.96875 -0.671875 C 3.167969 -0.671875 3.332031 -0.714844 3.460938 -0.796875 C 3.589844 -0.875 3.703125 -0.976562 3.804688 -1.097656 Z "/>
</g>
<g id="glyph-0-8">
<path d="M 3.628906 0 L 0.210938 0 L 0.210938 -0.394531 C 0.304688 -0.402344 0.398438 -0.414062 0.488281 -0.421875 C 0.578125 -0.433594 0.65625 -0.453125 0.726562 -0.476562 C 0.839844 -0.519531 0.921875 -0.582031 0.960938 -0.664062 C 1.003906 -0.746094 1.023438 -0.855469 1.023438 -0.988281 L 1.023438 -7 C 1.023438 -7.136719 0.996094 -7.261719 0.941406 -7.382812 C 0.886719 -7.5 0.808594 -7.589844 0.714844 -7.648438 C 0.644531 -7.695312 0.535156 -7.742188 0.386719 -7.785156 C 0.242188 -7.828125 0.113281 -7.855469 0 -7.859375 L 0 -8.257812 L 2.734375 -8.398438 L 2.816406 -8.3125 L 2.816406 -1.058594 C 2.816406 -0.925781 2.839844 -0.816406 2.886719 -0.730469 C 2.933594 -0.648438 3.011719 -0.585938 3.117188 -0.535156 C 3.1875 -0.503906 3.265625 -0.476562 3.34375 -0.449219 C 3.425781 -0.425781 3.519531 -0.40625 3.628906 -0.394531 Z "/>
</g>
<g id="glyph-0-9">
<path d="M 6.324219 -7.273438 C 6.179688 -7.257812 6.058594 -7.238281 5.957031 -7.222656 C 5.855469 -7.203125 5.742188 -7.175781 5.613281 -7.144531 C 5.464844 -7.105469 5.371094 -7.035156 5.332031 -6.933594 C 5.289062 -6.832031 5.269531 -6.714844 5.269531 -6.585938 L 5.269531 -2.339844 C 5.269531 -1.949219 5.1875 -1.589844 5.03125 -1.265625 C 4.875 -0.9375 4.660156 -0.667969 4.382812 -0.445312 C 4.105469 -0.226562 3.792969 -0.0625 3.449219 0.046875 C 3.105469 0.15625 2.738281 0.210938 2.347656 0.210938 C 1.671875 0.210938 1.128906 0.046875 0.714844 -0.277344 C 0.300781 -0.601562 0.09375 -1.050781 0.09375 -1.617188 C 0.09375 -1.953125 0.1875 -2.230469 0.378906 -2.453125 C 0.566406 -2.671875 0.828125 -2.78125 1.160156 -2.78125 C 1.476562 -2.78125 1.726562 -2.691406 1.914062 -2.507812 C 2.097656 -2.320312 2.191406 -2.09375 2.191406 -1.824219 C 2.191406 -1.589844 2.109375 -1.378906 1.949219 -1.179688 C 1.789062 -0.984375 1.605469 -0.800781 1.398438 -0.632812 L 1.398438 -0.5625 C 1.433594 -0.492188 1.503906 -0.429688 1.613281 -0.378906 C 1.71875 -0.328125 1.832031 -0.304688 1.945312 -0.304688 C 2.378906 -0.304688 2.722656 -0.460938 2.96875 -0.769531 C 3.21875 -1.082031 3.34375 -1.550781 3.34375 -2.183594 L 3.34375 -6.53125 C 3.34375 -6.660156 3.320312 -6.769531 3.28125 -6.855469 C 3.242188 -6.945312 3.144531 -7.019531 2.992188 -7.085938 C 2.882812 -7.132812 2.753906 -7.171875 2.597656 -7.203125 C 2.441406 -7.238281 2.316406 -7.261719 2.214844 -7.273438 L 2.214844 -7.699219 L 6.324219 -7.699219 Z "/>
</g>
<g id="glyph-0-10">
<path d="M 7.476562 0 L 4.214844 0 L 4.214844 -0.394531 C 4.285156 -0.402344 4.367188 -0.414062 4.464844 -0.421875 C 4.5625 -0.433594 4.636719 -0.453125 4.6875 -0.476562 C 4.761719 -0.515625 4.816406 -0.574219 4.851562 -0.652344 C 4.882812 -0.726562 4.898438 -0.839844 4.898438 -0.988281 L 4.898438 -3.527344 C 4.898438 -3.894531 4.832031 -4.171875 4.695312 -4.359375 C 4.558594 -4.546875 4.359375 -4.636719 4.09375 -4.636719 C 3.949219 -4.636719 3.8125 -4.617188 3.6875 -4.574219 C 3.5625 -4.53125 3.441406 -4.464844 3.320312 -4.382812 C 3.214844 -4.3125 3.132812 -4.238281 3.066406 -4.160156 C 3.003906 -4.085938 2.953125 -4.019531 2.90625 -3.960938 L 2.90625 -1.046875 C 2.90625 -0.921875 2.925781 -0.816406 2.960938 -0.730469 C 3 -0.644531 3.058594 -0.582031 3.140625 -0.535156 C 3.199219 -0.503906 3.269531 -0.476562 3.359375 -0.449219 C 3.445312 -0.425781 3.53125 -0.40625 3.613281 -0.394531 L 3.613281 0 L 0.316406 0 L 0.316406 -0.394531 C 0.40625 -0.402344 0.496094 -0.414062 0.589844 -0.425781 C 0.679688 -0.4375 0.757812 -0.457031 0.824219 -0.476562 C 0.941406 -0.515625 1.019531 -0.578125 1.0625 -0.660156 C 1.105469 -0.746094 1.128906 -0.855469 1.128906 -0.988281 L 1.128906 -4.144531 C 1.128906 -4.257812 1.097656 -4.367188 1.042969 -4.476562 C 0.984375 -4.585938 0.90625 -4.671875 0.8125 -4.742188 C 0.75 -4.785156 0.667969 -4.820312 0.566406 -4.851562 C 0.46875 -4.878906 0.359375 -4.898438 0.238281 -4.910156 L 0.238281 -5.304688 L 2.828125 -5.445312 L 2.90625 -5.367188 L 2.90625 -4.578125 L 2.929688 -4.578125 C 3.03125 -4.667969 3.152344 -4.777344 3.296875 -4.90625 C 3.441406 -5.03125 3.578125 -5.132812 3.699219 -5.214844 C 3.832031 -5.300781 4.007812 -5.375 4.226562 -5.4375 C 4.441406 -5.496094 4.675781 -5.527344 4.921875 -5.527344 C 5.511719 -5.527344 5.953125 -5.359375 6.246094 -5.027344 C 6.542969 -4.691406 6.6875 -4.246094 6.6875 -3.695312 L 6.6875 -1.035156 C 6.6875 -0.902344 6.710938 -0.796875 6.75 -0.714844 C 6.789062 -0.636719 6.863281 -0.574219 6.972656 -0.527344 C 7.027344 -0.5 7.101562 -0.476562 7.1875 -0.449219 C 7.269531 -0.425781 7.367188 -0.40625 7.476562 -0.394531 Z "/>
</g>
<g id="glyph-0-11">
<path d="M 6.148438 -1.296875 C 6.019531 -1.089844 5.867188 -0.894531 5.6875 -0.714844 C 5.507812 -0.53125 5.304688 -0.375 5.078125 -0.242188 C 4.835938 -0.105469 4.589844 -0.00390625 4.34375 0.0664062 C 4.09375 0.136719 3.808594 0.171875 3.488281 0.171875 C 2.953125 0.171875 2.492188 0.0976562 2.101562 -0.0546875 C 1.714844 -0.207031 1.390625 -0.410156 1.140625 -0.667969 C 0.886719 -0.925781 0.695312 -1.226562 0.574219 -1.574219 C 0.449219 -1.925781 0.386719 -2.304688 0.386719 -2.710938 C 0.386719 -3.082031 0.453125 -3.433594 0.589844 -3.773438 C 0.722656 -4.113281 0.917969 -4.414062 1.167969 -4.675781 C 1.414062 -4.933594 1.722656 -5.140625 2.097656 -5.300781 C 2.472656 -5.460938 2.890625 -5.539062 3.351562 -5.539062 C 3.859375 -5.539062 4.273438 -5.476562 4.601562 -5.355469 C 4.925781 -5.230469 5.195312 -5.0625 5.410156 -4.84375 C 5.613281 -4.636719 5.765625 -4.394531 5.859375 -4.113281 C 5.953125 -3.835938 6 -3.539062 6 -3.234375 L 6 -2.878906 L 2.332031 -2.878906 C 2.332031 -2.140625 2.476562 -1.574219 2.761719 -1.1875 C 3.046875 -0.800781 3.5 -0.609375 4.125 -0.609375 C 4.464844 -0.609375 4.769531 -0.699219 5.039062 -0.886719 C 5.3125 -1.074219 5.542969 -1.308594 5.734375 -1.59375 L 6.148438 -1.296875 M 4.074219 -3.359375 C 4.074219 -3.574219 4.0625 -3.796875 4.042969 -4.027344 C 4.019531 -4.253906 3.980469 -4.441406 3.929688 -4.585938 C 3.867188 -4.753906 3.78125 -4.882812 3.675781 -4.96875 C 3.570312 -5.054688 3.433594 -5.101562 3.269531 -5.101562 C 2.992188 -5.101562 2.769531 -4.957031 2.605469 -4.675781 C 2.4375 -4.394531 2.347656 -3.949219 2.332031 -3.335938 Z "/>
</g>
<g id="glyph-0-12">
<path d="M 6.445312 -4.984375 C 6.28125 -4.960938 6.125 -4.898438 5.96875 -4.800781 C 5.816406 -4.703125 5.6875 -4.550781 5.585938 -4.34375 C 5.277344 -3.6875 4.957031 -2.988281 4.628906 -2.242188 C 4.296875 -1.5 3.933594 -0.695312 3.53125 0.167969 C 3.308594 0.652344 3.089844 1.039062 2.878906 1.328125 C 2.671875 1.617188 2.472656 1.839844 2.289062 1.996094 C 2.117188 2.140625 1.945312 2.246094 1.773438 2.3125 C 1.605469 2.375 1.433594 2.410156 1.257812 2.410156 C 0.914062 2.410156 0.636719 2.3125 0.425781 2.121094 C 0.214844 1.929688 0.109375 1.714844 0.109375 1.476562 C 0.109375 1.375 0.121094 1.28125 0.144531 1.195312 C 0.167969 1.105469 0.21875 1.015625 0.292969 0.921875 C 0.351562 0.84375 0.441406 0.773438 0.5625 0.71875 C 0.683594 0.664062 0.820312 0.632812 0.96875 0.632812 C 1.171875 0.632812 1.367188 0.707031 1.550781 0.847656 C 1.734375 0.988281 1.925781 1.183594 2.125 1.433594 C 2.246094 1.3125 2.390625 1.132812 2.566406 0.894531 C 2.742188 0.660156 2.871094 0.414062 2.953125 0.164062 C 2.523438 -0.738281 2.144531 -1.523438 1.8125 -2.183594 C 1.480469 -2.847656 1.105469 -3.589844 0.695312 -4.40625 C 0.605469 -4.578125 0.484375 -4.714844 0.332031 -4.808594 C 0.179688 -4.90625 0.0195312 -4.964844 -0.152344 -4.984375 L -0.152344 -5.382812 L 3.167969 -5.382812 L 3.167969 -4.984375 C 3.046875 -4.980469 2.902344 -4.953125 2.742188 -4.90625 C 2.582031 -4.855469 2.503906 -4.789062 2.503906 -4.710938 C 2.503906 -4.679688 2.507812 -4.648438 2.519531 -4.613281 C 2.53125 -4.578125 2.550781 -4.53125 2.578125 -4.464844 C 2.703125 -4.210938 2.875 -3.863281 3.101562 -3.414062 C 3.328125 -2.964844 3.589844 -2.4375 3.890625 -1.835938 C 4.113281 -2.347656 4.304688 -2.789062 4.460938 -3.160156 C 4.617188 -3.527344 4.769531 -3.890625 4.917969 -4.25 C 4.957031 -4.339844 4.976562 -4.410156 4.980469 -4.460938 C 4.988281 -4.515625 4.988281 -4.550781 4.988281 -4.566406 C 4.988281 -4.632812 4.957031 -4.691406 4.894531 -4.738281 C 4.832031 -4.789062 4.757812 -4.832031 4.671875 -4.867188 C 4.578125 -4.902344 4.492188 -4.929688 4.410156 -4.949219 C 4.328125 -4.964844 4.257812 -4.976562 4.203125 -4.984375 L 4.203125 -5.382812 L 6.445312 -5.382812 Z "/>
</g>
</g>
</defs>
<g fill="rgb(100%, 100%, 100%)" fill-opacity="1">
<use xlink:href="#glyph-0-0" x="30" y="30.188477"/>
<use xlink:href="#glyph-0-1" x="38" y="30.188477"/>
<use xlink:href="#glyph-0-2" x="45" y="30.188477"/>
<use xlink:href="#glyph-0-3" x="53" y="30.188477"/>
<use xlink:href="#glyph-0-4" x="59" y="30.188477"/>
<use xlink:href="#glyph-0-5" x="62" y="30.188477"/>
<use xlink:href="#glyph-0-3" x="70" y="30.188477"/>
<use xlink:href="#glyph-0-6" x="76" y="30.188477"/>
<use xlink:href="#glyph-0-7" x="80" y="30.188477"/>
<use xlink:href="#glyph-0-8" x="87" y="30.188477"/>
<use xlink:href="#glyph-0-4" x="91" y="30.188477"/>
<use xlink:href="#glyph-0-9" x="94" y="30.188477"/>
<use xlink:href="#glyph-0-1" x="101" y="30.188477"/>
<use xlink:href="#glyph-0-2" x="108" y="30.188477"/>
<use xlink:href="#glyph-0-3" x="116" y="30.188477"/>
<use xlink:href="#glyph-0-10" x="122" y="30.188477"/>
<use xlink:href="#glyph-0-11" x="130" y="30.188477"/>
<use xlink:href="#glyph-0-12" x="136" y="30.188477"/>
</g>
</svg>
